#define no_width 68
#define no_height 64
static unsigned char no_bits[] = {
   0x00, 0x00, 0x00, 0x00, 0x00, 0x00, 0x00, 0x00, 0x00, 0x00, 0x00, 0x00,
   0x00, 0x00, 0x00, 0x00, 0x00, 0x00, 0x00, 0x00, 0x00, 0x00, 0x00, 0x00,
   0x00, 0x00, 0x00, 0x00, 0x00, 0x00, 0x00, 0x44, 0x00, 0x00, 0x00, 0x00,
   0x00, 0x00, 0x00, 0x80, 0xaa, 0x02, 0x00, 0x00, 0x00, 0x00, 0x00, 0x00,
   0x50, 0x00, 0x04, 0x00, 0x00, 0x00, 0x00, 0x00, 0x00, 0x04, 0x00, 0x10,
   0x00, 0x00, 0x00, 0x00, 0x00, 0x00, 0x01, 0x00, 0x40, 0x00, 0x00, 0x00,
   0x00, 0x00, 0x40, 0x00, 0x00, 0x00, 0x00, 0x00, 0x00, 0x00, 0x00, 0x20,
   0x00, 0x00, 0x00, 0x01, 0x00, 0x00, 0x00, 0x00, 0x10, 0x00, 0x00, 0x00,
   0x00, 0x00, 0x00, 0x00, 0x00, 0x08, 0x00, 0x00, 0x00, 0x04, 0x00, 0x00,
   0x00, 0x00, 0x08, 0x80, 0x00, 0x00, 0x10, 0x00, 0x00, 0x00, 0x00, 0x0c,
   0x00, 0x00, 0x00, 0x00, 0x00, 0x00, 0x00, 0x00, 0x0e, 0x00, 0x00, 0x00,
   0x20, 0x00, 0x00, 0x00, 0x00, 0x0d, 0x00, 0x00, 0x00, 0x00, 0x00, 0x00,
   0x00, 0x00, 0x03, 0x00, 0x00, 0x00, 0x40, 0x00, 0x00, 0x00, 0x00, 0x03,
   0x00, 0x00, 0x00, 0x00, 0x00, 0x00, 0x00, 0x80, 0x00, 0x00, 0x00, 0x00,
   0x80, 0x00, 0x00, 0x00, 0x80, 0x00, 0x00, 0x00, 0x00, 0x00, 0x00, 0x00,
   0x00, 0xc0, 0x00, 0x00, 0x00, 0x08, 0x00, 0x01, 0x00, 0x00, 0x80, 0x00,
   0x00, 0x00, 0x10, 0x00, 0x00, 0x00, 0x00, 0x60, 0x00, 0x01, 0x00, 0x04,
   0x00, 0x01, 0x00, 0x00, 0xc0, 0x00, 0x00, 0x00, 0x04, 0x00, 0x00, 0x00,
   0x00, 0x60, 0x01, 0x00, 0x00, 0x03, 0x00, 0x02, 0x00, 0x00, 0x40, 0x02,
   0x00, 0xe8, 0x02, 0x00, 0x02, 0x00, 0x00, 0x60, 0x07, 0xe1, 0x3f, 0x00,
   0x00, 0x00, 0x00, 0x00, 0x40, 0x44, 0xf1, 0x67, 0x00, 0x00, 0x02, 0x00,
   0x00, 0x60, 0xe6, 0xf0, 0x03, 0x00, 0x00, 0x00, 0x00, 0x00, 0xe0, 0xcc,
   0xf9, 0x09, 0x00, 0x00, 0x01, 0x00, 0x00, 0xc0, 0xf8, 0xe8, 0x40, 0x01,
   0x00, 0x00, 0x00, 0x00, 0xc0, 0xe1, 0x88, 0x41, 0x01, 0x00, 0x01, 0x00,
   0x00, 0xa0, 0xe3, 0x40, 0xa5, 0x00, 0x00, 0x00, 0x00, 0x00, 0x80, 0xc7,
   0xa0, 0x09, 0x00, 0x00, 0x01, 0x00, 0x00, 0x40, 0x67, 0xc0, 0x02, 0x00,
   0x00, 0x00, 0x00, 0x00, 0x80, 0xdf, 0x98, 0x02, 0x00, 0x80, 0x00, 0x00,
   0x00, 0x80, 0x9e, 0x24, 0x04, 0x00, 0x80, 0x00, 0x00, 0x00, 0x00, 0xbf,
   0x04, 0x04, 0x00, 0x00, 0x00, 0x00, 0x00, 0x00, 0x3d, 0x03, 0x80, 0x01,
   0x20, 0x00, 0x00, 0x00, 0x00, 0x35, 0x06, 0x88, 0x00, 0x20, 0x00, 0x00,
   0x00, 0x00, 0x5c, 0x00, 0x40, 0x00, 0x10, 0x00, 0x00, 0x00, 0x00, 0xb8,
   0x00, 0x04, 0x00, 0x10, 0x00, 0x00, 0x00, 0x00, 0x50, 0x00, 0x00, 0x00,
   0x08, 0x00, 0x00, 0x00, 0x00, 0xa0, 0x02, 0x00, 0x00, 0x08, 0x00, 0x00,
   0x00, 0x00, 0x60, 0x08, 0x05, 0x00, 0x0a, 0x00, 0x00, 0x00, 0x00, 0x80,
   0x01, 0x04, 0x00, 0x00, 0x00, 0x00, 0x00, 0x00, 0x00, 0x06, 0x00, 0x40,
   0x11, 0x00, 0x00, 0x00, 0x00, 0x00, 0x08, 0x00, 0x10, 0x00, 0x00, 0x00,
   0x00, 0x00, 0x00, 0x08, 0x00, 0x00, 0x00, 0x00, 0x00, 0x00, 0x00, 0x00,
   0x40, 0x02, 0x05, 0x00, 0x00, 0x00, 0x00, 0x00, 0x00, 0x00, 0x28, 0x00,
   0x00, 0x00, 0x00, 0x00, 0x00, 0x00, 0x00, 0x00, 0x00, 0x00, 0x00, 0x00,
   0x00, 0x20, 0x80, 0x05, 0x00, 0x00, 0x00, 0x00, 0x00, 0x00, 0x70, 0xc6,
   0x0f, 0x00, 0x00, 0x00, 0x00, 0x00, 0x00, 0x70, 0x76, 0x0c, 0x00, 0x00,
   0x00, 0x00, 0x00, 0x00, 0xf8, 0x24, 0x18, 0x00, 0x00, 0x00, 0x00, 0x00,
   0x00, 0xf0, 0x77, 0x0c, 0x00, 0x00, 0x00, 0x00, 0x00, 0x00, 0x90, 0x37,
   0x18, 0x00, 0x00, 0x00, 0x00, 0x00, 0x00, 0x30, 0x77, 0x0c, 0x00, 0x00,
   0x00, 0x00, 0x00, 0x00, 0x30, 0xe7, 0x4c, 0x00, 0x00, 0x00, 0x00, 0x00,
   0x00, 0x10, 0xc7, 0xc7, 0x00, 0x00, 0x00, 0x00, 0x00, 0x00, 0x00, 0x80,
   0x02, 0x00, 0x00, 0x00, 0x00, 0x00, 0x00, 0x00, 0x00, 0x00, 0x00, 0x00,
   0x00, 0x00, 0x00, 0x00, 0x00, 0x00, 0x00, 0x00, 0x00, 0x00, 0x00, 0x00 };
